<svg xmlns="http://www.w3.org/2000/svg" width="1280" height="800" viewBox="0 0 1280 800">
<defs>
<linearGradient id="h1" x1="0" y1="0" x2="1" y2="0">
<stop offset="0%" stop-color="#1e6cbf"/>
<stop offset="100%" stop-color="#155ea8"/>
</linearGradient>
</defs>
<rect x="40" y="60" rx="12" ry="12" width="1200" height="680" fill="#ffffff" stroke="#e5e7eb"/>
<rect x="40" y="20" rx="8" ry="8" width="1200" height="32" fill="#f3f4f6" stroke="#e5e7eb"/>
<rect x="120" y="26" rx="6" ry="6" width="400" height="16" fill="#ffffff" stroke="#e5e7eb"/>
<text x="130" y="38" font-family="Inter, Arial, sans-serif" font-size="12" fill="#6b7280">BezAssetTracker</text>
<rect x="40" y="60" width="1200" height="72" fill="url(#h1)"/>
<text x="60" y="100" font-family="Inter, Arial, sans-serif" font-size="24" fill="#ffffff" font-weight="700">BezAssetTracker — Assets</text>
<text x="340" y="100" font-family="Inter, Arial, sans-serif" font-size="14" fill="#ddd6fe">6 assets found</text>
<rect x="60" y="144" rx="10" ry="10" width="320" height="36" fill="#ffffff" stroke="#e5e7eb"/>
<text x="78" y="166" font-family="Inter, Arial, sans-serif" font-size="13" fill="#374151">Search assets…</text>
<rect x="392" y="144" rx="10" ry="10" width="180" height="36" fill="#ffffff" stroke="#e5e7eb"/>
<text x="410" y="166" font-family="Inter, Arial, sans-serif" font-size="13" fill="#374151">All Categories</text>
<rect x="580" y="144" rx="10" ry="10" width="180" height="36" fill="#ffffff" stroke="#e5e7eb"/>
<text x="598" y="166" font-family="Inter, Arial, sans-serif" font-size="13" fill="#374151">All Status</text>
<rect x="768" y="144" rx="10" ry="10" width="160" height="36" fill="#6d28d9"/>
<text x="790" y="166" font-family="Inter, Arial, sans-serif" font-size="13" fill="#ffffff">+ Add Asset</text>
<g transform="translate(60,200)">
<g transform="translate(0,0)">
<rect rx="14" ry="14" width="352" height="180" fill="#ffffff" stroke="#e5e7eb"/>
<rect x="24" y="24" rx="8" ry="8" width="304" height="96" fill="#e5e7eb"/>
<text x="76" y="140" font-family="Inter, Arial, sans-serif" font-size="13" fill="#111827" font-weight="700">MacBook Pro 16"</text>
<text x="76" y="160" font-family="Inter, Arial, sans-serif" font-size="13" fill="#6b7280">AST‑001</text>
</g>
<g transform="translate(384,0)">
<rect rx="14" ry="14" width="352" height="180" fill="#ffffff" stroke="#e5e7eb"/>
<rect x="24" y="24" rx="8" ry="8" width="304" height="96" fill="#e5e7eb"/>
<text x="76" y="140" font-family="Inter, Arial, sans-serif" font-size="13" fill="#111827" font-weight="700">Standing Desk</text>
<text x="76" y="160" font-family="Inter, Arial, sans-serif" font-size="13" fill="#6b7280">AST‑002</text>
</g>
</g>
<text x="640" y="760" font-family="Inter, Arial, sans-serif" font-size="12" fill="#6b7280" text-anchor="middle">Client Laptop Preview (Plain SVG)</text>
</svg>
