<svg xmlns="http://www.w3.org/2000/svg" width="540" height="960" viewBox="0 0 540 960">
<defs>
<linearGradient id="g1" x1="0" y1="0" x2="1" y2="0">
<stop offset="0%" stop-color="#1e6cbf"/>
<stop offset="100%" stop-color="#155ea8"/>
</linearGradient>
<linearGradient id="g2" x1="0" y1="0" x2="0" y2="1">
<stop offset="0%" stop-color="#ffffff"/>
<stop offset="100%" stop-color="#f8fafc"/>
</linearGradient>
</defs>
<rect x="30" y="20" rx="36" ry="36" width="480" height="920" fill="url(#g2)" stroke="#e5e7eb" stroke-width="4"/>
<rect x="70" y="60" rx="24" ry="24" width="400" height="140" fill="url(#g1)"/>
<text x="140" y="110" font-family="Inter, Arial, sans-serif" font-size="22" fill="#ffffff" font-weight="700">BezAssetTracker</text>
<text x="140" y="136" font-family="Inter, Arial, sans-serif" font-size="12" fill="#bfdbfe">Mobile App</text>
<rect x="70" y="210" rx="12" ry="12" width="400" height="44" fill="#ffffff" stroke="#e5e7eb"/>
<circle cx="92" cy="232" r="10" fill="#9ca3af"/>
<text x="110" y="237" font-family="Inter, Arial, sans-serif" font-size="13" fill="#6b7280">Search assets…</text>
<rect x="70" y="266" rx="10" ry="10" width="128" height="36" fill="#ffffff" stroke="#e5e7eb"/>
<text x="84" y="289" font-family="Inter, Arial, sans-serif" font-size="12" fill="#374151">All Categories</text>
<rect x="206" y="266" rx="10" ry="10" width="128" height="36" fill="#ffffff" stroke="#e5e7eb"/>
<text x="220" y="289" font-family="Inter, Arial, sans-serif" font-size="12" fill="#374151">All Status</text>
<rect x="342" y="266" rx="10" ry="10" width="128" height="36" fill="#6d28d9"/>
<text x="360" y="289" font-family="Inter, Arial, sans-serif" font-size="12" fill="#ffffff">+ Add Asset</text>
<text x="70" y="330" font-family="Inter, Arial, sans-serif" font-size="16" fill="#111827" font-weight="600">Assets</text>
<text x="150" y="330" font-family="Inter, Arial, sans-serif" font-size="12" fill="#6b7280">6 assets found</text>
<g transform="translate(70,350)">
<g transform="translate(0,0)">
<rect rx="14" ry="14" width="188" height="160" fill="#ffffff" stroke="#e5e7eb"/>
<rect x="20" y="20" rx="8" ry="8" width="148" height="80" fill="#e5e7eb"/>
<text x="60" y="120" font-family="Inter, Arial, sans-serif" font-size="12" fill="#111827" font-weight="600">MacBook Pro 16"</text>
<text x="60" y="140" font-family="Inter, Arial, sans-serif" font-size="12" fill="#6b7280">AST‑001</text>
</g>
<g transform="translate(212,0)">
<rect rx="14" ry="14" width="188" height="160" fill="#ffffff" stroke="#e5e7eb"/>
<rect x="20" y="20" rx="8" ry="8" width="148" height="80" fill="#e5e7eb"/>
<text x="50" y="120" font-family="Inter, Arial, sans-serif" font-size="12" fill="#111827" font-weight="600">Standing Desk</text>
<text x="60" y="140" font-family="Inter, Arial, sans-serif" font-size="12" fill="#6b7280">AST‑002</text>
</g>
</g>
<text x="270" y="900" font-family="Inter, Arial, sans-serif" font-size="11" fill="#6b7280" text-anchor="middle">Mobile App Preview (Plain SVG)</text>
</svg>
